<svg width="26" height="20" viewBox="0 0 26 20" fill="none" xmlns="http://www.w3.org/2000/svg">
<path d="M25.4324 2.67101C23.8952 2.74186 23.9288 2.73608 23.755 2.75062L24.6654 0.150807C24.6654 0.150807 21.8238 1.19614 21.1034 1.38313C19.2115 -0.317327 16.3993 -0.392459 14.3888 0.84322C12.7424 1.85537 11.8587 3.59348 12.1535 5.62504C8.94927 5.1804 6.24953 3.66153 4.11804 1.10106L3.4439 0.291378L2.94015 1.21646C2.30349 2.3854 2.09207 3.72194 2.34469 4.9798C2.44834 5.49585 2.62452 5.98803 2.86856 6.44889L2.29025 6.2248L2.22164 7.19108C2.1521 8.17266 2.47892 9.31847 3.09601 10.2559C3.26977 10.5198 3.49349 10.8098 3.77705 11.0957L3.4782 11.0499L3.84286 12.1571C4.32218 13.6118 5.31774 14.7373 6.60972 15.363C5.31942 15.9106 4.27707 16.2599 2.56375 16.8235L0.996216 17.3388L2.44406 18.1304C2.99608 18.4323 4.94674 19.4403 6.87408 19.7427C11.1583 20.4146 15.9819 19.8674 19.2292 16.9428C21.9644 14.4795 22.8618 10.9755 22.6754 7.32904C22.6473 6.77702 22.7985 6.25016 23.1012 5.84578C23.7077 5.0361 25.4287 2.67642 25.4324 2.67101ZM21.9563 4.98819C21.4535 5.65954 21.2017 6.51694 21.2468 7.40213C21.4349 11.0803 20.4341 13.9327 18.272 15.8798C15.7464 18.1545 11.6727 19.0473 7.09575 18.3293C6.26687 18.1994 5.41021 17.9084 4.7012 17.6177C6.13767 17.1235 7.24695 16.683 9.03838 15.8351L11.5392 14.6514L8.77812 14.4747C7.45557 14.39 6.35431 13.7491 5.67737 12.7084C6.03681 12.6875 6.38339 12.6293 6.72848 12.5331L9.36185 11.7997L6.70648 11.1494C5.41617 10.8334 4.6807 10.0614 4.29086 9.4693C4.03489 9.08021 3.86766 8.68162 3.76736 8.31416C4.03359 8.38556 4.344 8.43646 4.84457 8.48605L7.30232 8.72916L5.35502 7.2101C3.95193 6.11574 3.38965 4.47158 3.80185 2.891C8.18079 7.43289 13.3222 7.09153 13.8398 7.21159C13.7259 6.10511 13.7229 6.1025 13.6931 5.99717C13.0303 3.65426 14.4828 2.46463 15.1379 2.06193C16.5063 1.22093 18.6785 1.09416 20.183 2.47973C20.5079 2.77877 20.9474 2.89641 21.3586 2.79424C21.7278 2.70252 22.0307 2.60539 22.3273 2.49968L21.7099 4.26296L22.4981 4.26352C22.3493 4.46301 22.1709 4.70183 21.9563 4.98819Z" fill="white"/>
</svg>
