<svg width="18" height="20" viewBox="0 0 18 20" fill="none" xmlns="http://www.w3.org/2000/svg">
<path d="M17.3361 4.39316C15.2368 4.39316 13.5288 2.68524 13.5288 0.585938C13.5288 0.262299 13.2664 0 12.9429 0H9.80478C9.48114 0 9.21884 0.262299 9.21884 0.585938V13.4518C9.21884 14.686 8.21481 15.69 6.98053 15.69C5.7464 15.69 4.74237 14.686 4.74237 13.4518C4.74237 12.2176 5.7464 11.2135 6.98053 11.2135C7.30417 11.2135 7.56647 10.9512 7.56647 10.6276V7.48947C7.56647 7.16599 7.30417 6.90353 6.98053 6.90353C3.36984 6.90353 0.432373 9.84116 0.432373 13.4518C0.432373 17.0625 3.36984 20 6.98053 20C10.5912 20 13.5288 17.0625 13.5288 13.4518V7.75681C14.6951 8.3786 15.9927 8.70316 17.3361 8.70316C17.6597 8.70316 17.922 8.44086 17.922 8.11722V4.9791C17.922 4.65561 17.6597 4.39316 17.3361 4.39316ZM16.7501 7.50702C15.4992 7.40295 14.3113 6.96594 13.285 6.22772C13.1066 6.09924 12.8713 6.08154 12.6756 6.18195C12.4799 6.28204 12.357 6.48346 12.357 6.70334V13.4518C12.357 16.4163 9.94501 18.8281 6.98053 18.8281C4.01605 18.8281 1.60425 16.4163 1.60425 13.4518C1.60425 10.6853 3.70477 8.39996 6.39459 8.10715V10.092C4.79242 10.3706 3.5705 11.7711 3.5705 13.4518C3.5705 15.3322 5.10019 16.862 6.98053 16.862C8.86102 16.862 10.3907 15.3322 10.3907 13.4518V1.17188H12.3911C12.6595 3.45001 14.472 5.26245 16.7501 5.53085V7.50702Z" fill="white"/>
</svg>
